<mxfile host="65bd71144e">
    <diagram id="zCBaEhUrE6qJ4QEpOwrf" name="Page-1">
        <mxGraphModel dx="1426" dy="2234" grid="1" gridSize="10" guides="1" tooltips="1" connect="1" arrows="1" fold="1" page="1" pageScale="1" pageWidth="850" pageHeight="1100" math="1" shadow="0">
            <root>
                <mxCell id="0"/>
                <mxCell id="1" parent="0"/>
                <mxCell id="2" value="&lt;font style=&quot;font-size: 32px;&quot;&gt;\(\text{...}\)&lt;/font&gt;" style="rounded=0;whiteSpace=wrap;html=1;fillColor=none;strokeColor=none;rotation=90;" vertex="1" parent="1">
                    <mxGeometry x="60" y="-1040" width="40" height="26" as="geometry"/>
                </mxCell>
                <mxCell id="3" value="" style="group" vertex="1" connectable="0" parent="1">
                    <mxGeometry x="60" y="-980" width="16.66666666666663" height="415" as="geometry"/>
                </mxCell>
                <mxCell id="4" value="" style="whiteSpace=wrap;html=1;aspect=fixed;fillColor=#808080;strokeColor=none;container=0;" vertex="1" parent="3">
                    <mxGeometry width="16.666666666666664" height="16.666666666666664" as="geometry"/>
                </mxCell>
                <mxCell id="5" value="" style="whiteSpace=wrap;html=1;aspect=fixed;fillColor=#808080;strokeColor=none;container=0;" vertex="1" parent="3">
                    <mxGeometry y="20.833333333333314" width="16.666666666666664" height="16.666666666666664" as="geometry"/>
                </mxCell>
                <mxCell id="6" value="" style="whiteSpace=wrap;html=1;aspect=fixed;fillColor=#808080;strokeColor=none;container=0;" vertex="1" parent="3">
                    <mxGeometry y="41.66666666666663" width="16.666666666666664" height="16.666666666666664" as="geometry"/>
                </mxCell>
                <mxCell id="7" value="" style="whiteSpace=wrap;html=1;aspect=fixed;fillColor=#808080;strokeColor=none;container=0;" vertex="1" parent="3">
                    <mxGeometry y="62.5" width="16.666666666666664" height="16.666666666666664" as="geometry"/>
                </mxCell>
                <mxCell id="8" value="" style="whiteSpace=wrap;html=1;aspect=fixed;fillColor=#808080;strokeColor=none;container=0;" vertex="1" parent="3">
                    <mxGeometry y="83.33333333333331" width="16.666666666666664" height="16.666666666666664" as="geometry"/>
                </mxCell>
                <mxCell id="9" value="" style="whiteSpace=wrap;html=1;aspect=fixed;fillColor=#808080;strokeColor=none;container=0;" vertex="1" parent="3">
                    <mxGeometry y="105" width="16.666666666666664" height="16.666666666666664" as="geometry"/>
                </mxCell>
                <mxCell id="10" value="" style="whiteSpace=wrap;html=1;aspect=fixed;fillColor=#808080;strokeColor=none;container=0;" vertex="1" parent="3">
                    <mxGeometry y="125.83333333333331" width="16.666666666666664" height="16.666666666666664" as="geometry"/>
                </mxCell>
                <mxCell id="11" value="" style="whiteSpace=wrap;html=1;aspect=fixed;fillColor=#808080;strokeColor=none;container=0;" vertex="1" parent="3">
                    <mxGeometry y="146.66666666666666" width="16.666666666666664" height="16.666666666666664" as="geometry"/>
                </mxCell>
                <mxCell id="12" value="" style="whiteSpace=wrap;html=1;aspect=fixed;fillColor=#808080;strokeColor=none;container=0;" vertex="1" parent="3">
                    <mxGeometry y="167.5" width="16.666666666666664" height="16.666666666666664" as="geometry"/>
                </mxCell>
                <mxCell id="13" value="" style="whiteSpace=wrap;html=1;aspect=fixed;fillColor=#808080;strokeColor=none;container=0;" vertex="1" parent="3">
                    <mxGeometry y="188.33333333333331" width="16.666666666666664" height="16.666666666666664" as="geometry"/>
                </mxCell>
                <mxCell id="14" value="" style="whiteSpace=wrap;html=1;aspect=fixed;fillColor=#808080;strokeColor=none;container=0;" vertex="1" parent="3">
                    <mxGeometry y="210" width="16.666666666666664" height="16.666666666666664" as="geometry"/>
                </mxCell>
                <mxCell id="15" value="" style="whiteSpace=wrap;html=1;aspect=fixed;fillColor=#808080;strokeColor=none;container=0;" vertex="1" parent="3">
                    <mxGeometry y="230.83333333333331" width="16.666666666666664" height="16.666666666666664" as="geometry"/>
                </mxCell>
                <mxCell id="16" value="" style="whiteSpace=wrap;html=1;aspect=fixed;fillColor=#808080;strokeColor=none;container=0;" vertex="1" parent="3">
                    <mxGeometry y="251.66666666666666" width="16.666666666666664" height="16.666666666666664" as="geometry"/>
                </mxCell>
                <mxCell id="17" value="" style="whiteSpace=wrap;html=1;aspect=fixed;fillColor=#808080;strokeColor=none;container=0;" vertex="1" parent="3">
                    <mxGeometry y="272.5" width="16.666666666666664" height="16.666666666666664" as="geometry"/>
                </mxCell>
                <mxCell id="18" value="" style="whiteSpace=wrap;html=1;aspect=fixed;fillColor=#808080;strokeColor=none;container=0;" vertex="1" parent="3">
                    <mxGeometry y="293.3333333333333" width="16.666666666666664" height="16.666666666666664" as="geometry"/>
                </mxCell>
                <mxCell id="19" value="" style="whiteSpace=wrap;html=1;aspect=fixed;fillColor=#808080;strokeColor=none;container=0;" vertex="1" parent="3">
                    <mxGeometry y="315" width="16.666666666666664" height="16.666666666666664" as="geometry"/>
                </mxCell>
                <mxCell id="20" value="" style="whiteSpace=wrap;html=1;aspect=fixed;fillColor=#808080;strokeColor=none;container=0;" vertex="1" parent="3">
                    <mxGeometry y="335.8333333333333" width="16.666666666666664" height="16.666666666666664" as="geometry"/>
                </mxCell>
                <mxCell id="21" value="" style="whiteSpace=wrap;html=1;aspect=fixed;fillColor=#808080;strokeColor=none;container=0;" vertex="1" parent="3">
                    <mxGeometry y="356.66666666666663" width="16.666666666666664" height="16.666666666666664" as="geometry"/>
                </mxCell>
                <mxCell id="22" value="" style="whiteSpace=wrap;html=1;aspect=fixed;fillColor=#808080;strokeColor=none;container=0;" vertex="1" parent="3">
                    <mxGeometry y="377.5" width="16.666666666666664" height="16.666666666666664" as="geometry"/>
                </mxCell>
                <mxCell id="23" value="" style="whiteSpace=wrap;html=1;aspect=fixed;fillColor=#808080;strokeColor=none;container=0;" vertex="1" parent="3">
                    <mxGeometry y="398.3333333333333" width="16.666666666666664" height="16.666666666666664" as="geometry"/>
                </mxCell>
            </root>
        </mxGraphModel>
    </diagram>
</mxfile>